<svg xmlns="http://www.w3.org/2000/svg" viewBox="0 0 32 32" width="32" height="32">
  <defs>
    <linearGradient id="g" x1="0%" y1="0%" x2="100%" y2="100%">
      <stop offset="0%" style="stop-color:#7C3AED" />
      <stop offset="100%" style="stop-color:#3B82F6" />
    </linearGradient>
  </defs>

  <!-- Rounded square -->
  <rect width="32" height="32" rx="7" fill="none" stroke="url(#g)" stroke-width="2"/>

  <!-- Simplified brain/bubble mark -->
  <path d="M11 10 C11 8, 14 6, 16 8 C18 6, 21 8, 21 10" fill="none" stroke="url(#g)" stroke-width="1.5" stroke-linecap="round"/>
  <path d="M11 14 C9 14, 8 17, 11 19 C8 21, 9 24, 11 24" fill="none" stroke="url(#g)" stroke-width="1.5" stroke-linecap="round"/>
  <path d="M21 14 C23 14, 24 17, 21 19 C24 21, 23 24, 21 24" fill="none" stroke="url(#g)" stroke-width="1.5" stroke-linecap="round"/>
  <path d="M14 24 L16 27 L18 24" fill="none" stroke="url(#g)" stroke-width="1.5" stroke-linecap="round" stroke-linejoin="round"/>
  <circle cx="16" cy="15" r="1.5" fill="url(#g)"/>
</svg>
